# xmcd
#
# Track frame offsets: 
#        151
#        7607
#        15579
#        34112
#        57929
#        67964
#        90044
#        121454
#        169989
#        202664
#        225052
#        239664
#        266413
#        286793
#
# Disc length: 4045 seconds
#
# Revision: 1
# Processed by: cddbd v1.5.2PL0 Copyright (c) Steve Scherf et al.
# Submitted via: ExactAudioCopy v0.99pb5
#
DISCID=9c0fcb0e
DTITLE=Jazz Poets Society - Poets Lounge: The Show
DYEAR=1900
DGENRE=Jazz
TTITLE0=Intro
TTITLE1=Hello
TTITLE2=Aboriginals
TTITLE3=Umbrellas
TTITLE4=Hot
TTITLE5=I Don't Know
TTITLE6=Omar
TTITLE7=Brothers Ain't Ready
TTITLE8=Sugar
TTITLE9=The Cypher
TTITLE10=Webeso Cool
TTITLE11=What If
TTITLE12=Aboriginals (Radio Mix)
TTITLE13=Webeso Cool (Radio Mix)
EXTD=
EXTT0=
EXTT1=
EXTT2=
EXTT3=
EXTT4=
EXTT5=
EXTT6=
EXTT7=
EXTT8=
EXTT9=
EXTT10=
EXTT11=
EXTT12=
EXTT13=
PLAYORDER=
